<?xml version="1.0" encoding="UTF-8" standalone="no"?>
<!DOCTYPE svg PUBLIC "-//W3C//DTD SVG 1.1//EN" "http://www.w3.org/Graphics/SVG/1.1/DTD/svg11.dtd">
<svg width="100%" height="100%" viewBox="0 0 712 712" version="1.1" xmlns="http://www.w3.org/2000/svg" xmlns:xlink="http://www.w3.org/1999/xlink" xml:space="preserve" xmlns:serif="http://www.serif.com/" style="fill-rule:evenodd;clip-rule:evenodd;stroke-linejoin:round;stroke-miterlimit:2;">
    <g transform="matrix(1,0,0,1,0,100)">
        <g transform="matrix(1.31395,0,0,1.31395,19.6281,-80.3689)">
            <path d="M374.36,501.741C374.36,501.741 410.998,484.55 415.433,453.212C419.869,421.874 395.078,404.78 395.078,404.78C395.078,404.78 445.245,388.72 440.138,319.174C435.031,249.627 388.546,238.383 388.546,238.383C388.546,238.383 407.523,145.81 315.475,183.908C315.475,183.908 338.648,59.203 250.117,99.858L226.225,322.91L374.36,501.741Z" style="fill:rgb(204,243,226);fill-rule:nonzero;"/>
            <path d="M393.294,404.498C393.294,404.498 447.382,388.914 442.968,316.093C442.174,302.997 432.088,284.314 428.915,274.821C432.661,378.783 356.663,414.852 290.325,348.92C286.765,345.381 270.34,380.016 265.61,378.608L369.57,505.357C369.57,505.357 409.156,488.265 414.397,455.613C419.638,422.96 393.294,404.498 393.294,404.498Z" style="fill:rgb(177,182,225);fill-rule:nonzero;"/>
            <path d="M371.973,504.1C356.829,463.318 332.925,431.446 305.225,410.577L305.215,410.816C316.437,394.914 325.188,376.813 333.337,347.96L350.611,290.851C356.413,270.307 355.565,249.459 349.353,230.601C355.666,226.996 361.713,221.439 367.043,213.76C383.274,190.371 377.166,149.647 369.883,144.593C362.599,139.539 322.312,148.065 306.081,171.453C305.44,172.377 304.842,173.3 304.264,174.221C296.641,169.67 288.306,166.029 279.354,163.501L218.072,146.192C213.495,144.9 209,144.007 204.594,143.455C205.557,137.646 205.526,131.142 204.288,124.031C199.455,96.276 166.838,71.848 158.196,73.353C149.554,74.859 127.114,108.874 131.947,136.628C133.546,145.811 136.697,153.363 140.911,159.247C126.662,168.435 115.727,179.81 109.223,188.844C93.527,210.644 79.752,242.526 79.752,242.526C49.457,258.296 33.137,286.972 35.14,316.489C36.792,340.844 47.806,361.47 65.552,377.975C81.149,392.483 109.801,404.195 126.408,407.364L128.958,408.593C119.238,440.859 113.019,482.456 113.065,504.101" style="fill:white;fill-rule:nonzero;"/>
            <path d="M265.935,187.609C266.033,187.159 266.11,186.702 266.145,186.226C270.576,168.87 269.727,152.467 261.174,137.452C266.526,118.147 265.824,101.69 256.261,89.237C256.361,66.183 253.493,40.715 248.549,13.555C248.132,9.47 242.346,9.049 241.34,13.029C233.616,33.899 227.704,53.661 226.886,70.306C218.024,81.441 214.193,94.165 217.108,109.053C209.189,120.622 205.1,133.858 206.887,149.554C196.71,161.165 197.754,174.814 197.724,181.125C198.891,202.677 261.629,207.558 265.935,187.609Z" style="fill:rgb(246,224,110);fill-rule:nonzero;"/>
            <path d="M265.935,187.609C266.033,187.159 266.11,186.702 266.145,186.226C269.291,173.9 269.757,162.058 266.71,150.85C266.359,154.165 265.753,157.522 264.888,160.923C264.861,161.329 264.796,161.72 264.715,162.104C261.08,179.137 205.953,174.502 204.769,156.058C204.765,155.016 204.725,153.738 204.725,152.287C196.873,163.238 197.752,175.303 197.724,181.125C198.891,202.677 261.629,207.558 265.935,187.609Z" style="fill:rgb(221,168,106);fill-rule:nonzero;"/>
            <path d="M111.435,162.236C127.492,158.346 141.393,148.686 151.359,135.508C154.19,131.764 157.629,128.361 161.665,125.443C180.945,111.506 207.942,113.884 224.471,130.994C244.186,151.401 242.127,183.836 220.725,201.661C202.299,217.008 179.318,218.912 160.402,212.691C149.383,209.067 125.744,194.684 107.93,183.307C99.306,177.8 101.491,164.646 111.435,162.236Z" style="fill:rgb(204,243,226);fill-rule:nonzero;"/>
            <path d="M224.471,130.993C207.942,113.883 180.945,111.505 161.665,125.442C157.628,128.36 154.19,131.763 151.359,135.507C141.393,148.685 127.493,158.345 111.435,162.235C101.491,164.645 99.306,177.799 107.929,183.306C125.743,194.683 149.382,209.066 160.401,212.69C179.317,218.911 202.298,217.006 220.724,201.66C242.127,183.835 244.186,151.401 224.471,130.993ZM213.693,175.538C202.811,188.953 186.653,193.354 172.183,191.405C163.754,190.269 144.681,183.106 130.224,177.323C123.227,174.524 122.816,164.825 129.57,161.787C140.476,156.881 148.973,148.133 154.126,137.389C155.59,134.336 157.54,131.447 159.99,128.826C171.694,116.308 191.369,114.44 205.765,124.494C222.937,136.482 226.332,159.957 213.693,175.538Z" style="fill:rgb(177,182,225);fill-rule:nonzero;"/>
            <path d="M169.154,163.659C166.671,163.659 164.182,162.762 162.211,160.948C158.042,157.112 157.774,150.623 161.611,146.455C175.737,131.11 191.767,130.845 193.547,130.902C193.547,130.902 203.707,130.179 204.372,140.601C205.023,150.783 193.454,151.414 193.454,151.414C193.098,151.423 184.641,151.726 176.705,160.348C174.681,162.546 171.922,163.659 169.154,163.659Z" style="fill:white;fill-rule:nonzero;"/>
            <path d="M305.899,410.655C317.068,394.792 325.788,376.717 333.91,347.96L351.183,290.85C356.986,270.306 356.137,249.458 349.925,230.6C356.238,226.996 362.285,221.438 367.615,213.759C383.846,190.37 377.738,149.646 370.455,144.591C367.096,142.26 356.709,142.825 344.903,146.4C349.651,154.364 348.893,190.88 332.917,211.445C327.404,218.542 321.549,223.574 315.717,226.726C318.604,245.066 316.673,265.058 309.12,284.446L287.151,338.282C280.102,356.373 273.432,369.908 266.354,381.264C260.561,390.557 260.942,402.412 267.468,411.208C276.39,423.234 284.095,437.473 290.164,453.691C296.519,470.674 283.404,488.607 265.298,487.601L114.928,484.252C113.834,493.85 113.621,497.431 113.635,504.099L372.543,504.099C357.419,463.368 333.554,431.526 305.899,410.655Z" style="fill:rgb(225,189,252);fill-rule:nonzero;"/>
            <path d="M225.971,406.898C260.867,405.403 285.371,426.668 286.58,454.925C282.046,454.367 242.873,465.927 239.185,467.589C233.072,470.343 240.963,458.364 222.203,455.671C212.774,454.318 175.968,476.091 165.913,450.316C155.858,424.544 191.074,408.393 225.971,406.898Z" style="fill:white;fill-rule:nonzero;"/>
            <path d="M201.615,410.404C176.88,416.642 158.251,430.679 165.912,450.317C174.237,471.657 200.898,460.404 215.179,456.668C210.704,441.229 206.764,425.633 201.615,410.404Z" style="fill:rgb(161,232,195);fill-rule:nonzero;"/>
            <path d="M465.186,68.278L473.611,91.969C473.972,92.984 474.685,93.787 475.587,94.193L496.635,103.677C499.609,105.016 499.609,109.754 496.635,111.094L475.587,120.578C474.685,120.984 473.972,121.788 473.611,122.803L465.186,146.493C463.995,149.84 459.786,149.84 458.595,146.493L450.17,122.803C449.809,121.788 449.096,120.984 448.194,120.578L427.146,111.094C424.172,109.755 424.172,105.017 427.146,103.677L448.194,94.193C449.096,93.787 449.809,92.984 450.17,91.969L458.595,68.278C459.785,64.931 463.995,64.931 465.186,68.278Z" style="fill:rgb(251,242,170);fill-rule:nonzero;"/>
            <path d="M72.865,19.797L79.114,37.37C79.382,38.123 79.911,38.719 80.58,39.02L96.193,46.054C98.399,47.048 98.399,50.562 96.193,51.556L80.58,58.59C79.911,58.892 79.382,59.488 79.114,60.241L72.865,77.815C71.982,80.298 68.86,80.298 67.976,77.815L61.727,60.242C61.459,59.489 60.93,58.893 60.261,58.591L44.648,51.557C42.443,50.563 42.443,47.049 44.648,46.055L60.261,39.021C60.93,38.72 61.459,38.124 61.727,37.371L67.976,19.798C68.86,17.314 71.982,17.314 72.865,19.797Z" style="fill:rgb(251,242,170);fill-rule:nonzero;"/>
            <g>
                <circle cx="25.635" cy="126.763" r="12.5" style="fill:rgb(247,225,110);"/>
                <path d="M396.814,42.397C396.814,47.759 392.467,52.106 387.105,52.106C381.743,52.106 377.396,47.759 377.396,42.397C377.396,37.035 381.743,32.688 387.105,32.688C392.467,32.688 396.814,37.035 396.814,42.397Z" style="fill:rgb(247,225,110);fill-rule:nonzero;"/>
            </g>
        </g>
        <g transform="matrix(1.31395,0,0,1.31395,19.6281,-80.3689)">
            <path d="M427.008,395.068C439.27,381.977 453.276,358.052 450.366,318.422C446.123,260.655 415.376,239.036 399.831,231.735C401.12,218.709 401.295,194.101 387.416,178.375C387.601,175.029 387.607,172.022 387.533,169.534C387.336,162.914 385.903,140.763 375.73,133.704C365.56,126.645 344.306,133.051 338.036,135.183C335.249,136.13 331.819,137.438 328.085,139.155C326.602,120.491 321.302,100.915 307.197,89.921C296.588,81.654 282.935,79.455 266.47,83.28C266.131,62.324 263.582,38.934 258.689,11.99C257.783,5.507 252.489,0.516 245.91,0.037C239.403,-0.442 233.488,3.646 231.588,9.826C222.672,33.967 218.063,51.678 216.856,66.562C209.877,76.242 206.235,86.725 205.924,97.867C200.662,89.057 194.244,82.124 189.751,77.837C185,73.303 168.533,58.663 156.438,60.787C144.317,62.897 133.786,82.222 130.847,88.095C126.045,97.691 118.489,116.665 121.844,135.926C122.718,140.949 124.019,145.651 125.725,150.009C120.753,152.809 115.464,154.927 109.987,156.254C102.952,157.958 97.842,163.452 96.652,170.589C95.908,175.046 96.817,179.392 99.088,182.977C94.528,189.571 90.203,196.788 86.347,203.737L81.145,201.641C78.105,200.418 74.677,201.793 73.294,204.712L72.786,204.507C68.873,214.201 68.175,224.346 70.165,233.671C39.929,251.482 22.693,282.076 24.909,314.722C26.687,340.924 38.011,363.904 58.568,383.024C73.987,397.366 99.069,408.202 116.345,413.03C107.765,445.171 102.768,482.086 102.809,501.66C102.821,507.318 107.41,511.895 113.065,511.895L113.086,511.895C118.751,511.883 123.334,507.282 123.322,501.618C123.28,481.501 129.05,441.391 138.78,409.09C140.235,404.257 137.958,399.083 133.412,396.891C131.963,396.215 129.917,395.063 128.331,394.826C114.114,392.113 86.814,381.282 72.538,368.003C55.927,352.553 46.787,334.159 45.374,313.333C43.737,289.224 56.413,266.413 78.769,252.448C83.399,258.466 89.559,263.325 96.995,266.325C118.421,274.973 142.924,265.235 154.524,244.473L165.917,249.063C160.29,272.24 173.982,297.398 198.816,307.422C225.875,318.344 255.899,307.16 265.875,282.443L265.316,282.217C266.429,279.12 264.909,275.673 261.831,274.432L105.532,211.466C108.631,205.983 111.996,200.426 115.476,195.333C136.042,208.106 150.496,215.911 158.479,218.537C165.878,220.97 173.439,222.163 180.898,222.162C196.79,222.162 212.223,216.749 224.663,206.389C224.997,206.11 225.315,205.815 225.642,205.528C227.355,205.773 229.062,205.979 230.736,206.112C232.852,206.28 235.028,206.37 237.226,206.37C252.532,206.37 268.792,202.003 271.849,189.302C271.867,189.241 271.881,189.178 271.897,189.116C271.913,189.046 271.935,188.978 271.95,188.906C271.957,188.874 271.959,188.844 271.965,188.812C271.987,188.701 272.005,188.589 272.022,188.477C272.1,188.071 272.18,187.665 272.224,187.286C273.675,181.486 274.533,175.858 274.802,170.412L276.567,170.91C284.457,173.139 292.007,176.388 299.006,180.566C303.795,183.423 309.991,181.935 312.954,177.21C313.538,176.278 314.033,175.523 314.508,174.839C326.36,157.761 354.83,150.216 363.771,150.937C367.573,159.048 370.467,188.372 358.617,205.449C354.353,211.591 349.525,216.229 344.266,219.233C340.031,221.65 338.085,226.717 339.611,231.348C345.397,248.91 345.795,267.639 340.765,285.516L323.522,342.529C323.503,342.59 323.486,342.65 323.468,342.711C316.426,367.646 308.717,385.203 297.844,400.992C296.131,402.768 295.084,405.137 294.978,407.685L294.967,407.924C294.796,412.028 297.082,415.791 300.699,417.562C327.441,438.269 348.737,468.527 362.358,505.208C363.893,509.34 367.809,511.896 371.974,511.896C372.239,511.896 372.505,511.882 372.772,511.862C373.298,511.945 373.831,511.997 374.367,511.997C375.826,511.997 377.309,511.684 378.717,511.024C380.418,510.226 420.436,491.057 425.589,454.646C428.651,433.008 420.207,417.095 412.368,407.403C416.867,404.456 421.979,400.436 427.008,395.068ZM237.058,71.544C237.082,71.345 237.105,71.146 237.118,70.947C237.121,70.901 237.129,70.856 237.131,70.808C237.576,61.74 239.806,51.469 242.622,41.597C244.357,54.597 245.414,66.627 245.817,77.866L237.041,71.706C237.049,71.653 237.051,71.598 237.058,71.544ZM230.971,82.483L247.067,93.781C247.086,93.82 247.11,93.857 247.13,93.896C247.212,94.056 247.3,94.212 247.39,94.366C247.468,94.501 247.546,94.635 247.631,94.767C247.732,94.926 247.841,95.079 247.952,95.232C248.012,95.316 248.064,95.403 248.126,95.485C253.307,102.231 253.995,110.902 250.285,124.681L227.347,108.689C227.327,108.157 227.279,107.62 227.174,107.082C225.408,98.069 226.621,90.109 230.971,82.483ZM160.038,81.467C166.513,83.897 181.421,95.671 189.392,110.251C178.426,110.33 167.434,113.677 158.06,120.455C153.619,123.664 149.713,127.48 146.45,131.795C145.304,133.31 144.102,134.769 142.851,136.172C142.552,134.95 142.278,133.703 142.053,132.407C138.545,112.262 153.254,87.226 160.038,81.467ZM216.786,196.932C201.79,209.422 181.429,213.127 162.324,206.845C154.212,204.177 136.07,193.975 111.241,178.12C108.415,176.315 108.651,173.45 108.79,172.615C108.929,171.782 109.634,169.004 112.883,168.217C129.823,164.112 145.23,153.813 156.267,139.22C158.792,135.88 161.821,132.923 165.268,130.431C172.606,125.126 181.225,122.533 189.807,122.533C200.894,122.533 211.923,126.863 220.044,135.271C228.313,143.831 232.515,155.049 231.876,166.86C231.247,178.509 225.746,189.47 216.786,196.932ZM235.564,194.039C238.437,189.571 240.641,184.694 242.114,179.576L257.479,189.478C253.634,192.27 245.653,194.292 235.564,194.039ZM261.68,177.546L244.203,166.283C244.677,151.476 239.281,137.467 228.898,126.718C226.029,123.748 222.879,121.176 219.525,119C219.789,118.934 220.056,118.873 220.312,118.789L256.797,144.224C257.195,144.501 257.619,144.707 258.05,144.879C262.477,154.66 263.674,165.437 261.68,177.546ZM301.272,158.482C295.144,155.482 288.74,153.034 282.143,151.17L272.41,148.421C271.292,144.493 269.798,140.692 267.926,137.026C268.108,136.633 268.273,136.229 268.406,135.805C271.507,125.96 274.234,114.352 272.651,102.898C282.009,100.986 289.359,102.034 294.576,106.096C305.055,114.252 307.903,133.965 307.9,151.883C305.579,153.888 303.344,156.08 301.272,158.482ZM391.949,395.011C388.225,396.203 385.475,399.39 384.902,403.259C384.33,407.127 385.979,410.965 389.197,413.184C389.996,413.752 408.732,427.36 405.277,451.774C402.811,469.195 387.222,481.815 377.603,488.056C363.67,454.834 343.664,426.776 319.062,406.037C329.022,390.061 336.44,372.229 343.183,348.379L360.429,291.361C360.448,291.3 360.465,291.24 360.482,291.179C365.941,271.853 366.196,251.701 361.285,232.436C366.489,228.359 371.24,223.242 375.47,217.147C376.918,215.06 378.196,212.899 379.328,210.697C380.647,220.745 379.537,231.155 378.497,236.325C377.388,241.736 380.673,247.032 386.043,248.331C387.651,248.752 425.459,259.332 429.909,319.926C434.324,380.056 393.616,394.45 391.949,395.011Z" style="fill:rgb(60,18,44);fill-rule:nonzero;"/>
            <path d="M277.59,415.476C262.445,402.547 243.929,395.864 225.531,396.65C201.529,397.679 171.483,405.518 159.14,424.442C153.273,433.435 152.311,443.672 156.357,454.045C161.042,466.054 171.052,472.866 184.542,473.222C194.265,473.477 204.229,470.534 212.24,468.169C215.337,467.254 219.531,466.015 221.102,465.878C227.192,466.849 228.508,469.71 229.109,477.072C229.247,478.766 229.379,480.366 229.934,482.031C231.366,486.33 235.369,489.049 239.663,489.049C240.737,489.049 241.831,488.879 242.907,488.52C248,486.823 250.875,481.519 249.639,476.394C249.608,476.111 249.586,475.776 249.555,475.401C249.28,472.022 248.765,465.731 245.443,459.68C242.444,454.215 236.231,447.322 223.662,445.518C222.289,445.32 220.877,445.321 219.404,445.448L210.994,418.877C215.937,417.972 221.128,417.372 226.409,417.145C255.13,415.907 280.242,440.487 282.695,462.444C283.324,468.074 288.406,472.126 294.028,471.499C299.657,470.87 303.711,465.797 303.083,460.166C301.283,444.058 291.991,427.77 277.59,415.476ZM206.431,448.497C185.664,454.628 178.43,454.183 175.468,446.59C173.841,442.421 174.103,439.047 176.319,435.651C179.934,430.108 188.304,425.204 199.014,421.824L207.369,448.222C207.055,448.313 206.755,448.4 206.431,448.497Z" style="fill:rgb(60,18,44);fill-rule:nonzero;"/>
            <path d="M86.439,245.72C83.534,245.72 80.949,243.654 80.397,240.696C79.772,237.355 81.974,234.14 85.315,233.516L127.202,225.687C130.554,225.057 133.758,227.265 134.382,230.605C135.006,233.947 132.804,237.162 129.463,237.785L87.576,245.614C87.194,245.686 86.813,245.72 86.439,245.72Z" style="fill:white;fill-rule:nonzero;"/>
            <path d="M181.957,284.672C179.052,284.672 176.468,282.606 175.915,279.648C175.29,276.306 177.492,273.092 180.833,272.468L222.72,264.639C226.073,264.011 229.276,266.216 229.9,269.557C230.524,272.899 228.322,276.113 224.982,276.737L183.095,284.566C182.712,284.638 182.331,284.672 181.957,284.672Z" style="fill:white;fill-rule:nonzero;"/>
            <path d="M155.012,319.618C152.877,319.618 150.803,318.506 149.665,316.52C148.477,314.443 146.3,313.176 143.865,313.242C141.871,313.289 140.034,314.23 138.827,315.824C136.776,318.535 132.914,319.067 130.206,317.015C127.496,314.962 126.963,311.103 129.015,308.394C132.503,303.789 137.81,301.071 143.581,300.938C150.475,300.742 156.912,304.406 160.348,310.404C162.036,313.354 161.015,317.114 158.065,318.803C157.101,319.355 156.049,319.618 155.012,319.618Z" style="fill:rgb(60,18,44);fill-rule:nonzero;"/>
        </g>
    </g>
</svg>
