<?xml version="1.0" encoding="UTF-8" standalone="no"?>
<!DOCTYPE svg PUBLIC "-//W3C//DTD SVG 1.1//EN" "http://www.w3.org/Graphics/SVG/1.1/DTD/svg11.dtd">
<svg width="100%" height="100%" viewBox="0 0 24 24" version="1.1" xmlns="http://www.w3.org/2000/svg" xmlns:xlink="http://www.w3.org/1999/xlink" xml:space="preserve" xmlns:serif="http://www.serif.com/" style="fill-rule:evenodd;clip-rule:evenodd;stroke-linejoin:round;stroke-miterlimit:2;">
    <path d="M13.314,11.9L16.849,8.364C17.044,8.176 17.154,7.916 17.154,7.645C17.154,7.096 16.703,6.645 16.154,6.645C15.883,6.645 15.623,6.755 15.435,6.95L11.899,10.485L8.364,6.95C8.176,6.755 7.916,6.645 7.645,6.645C7.096,6.645 6.645,7.096 6.645,7.645C6.645,7.916 6.755,8.176 6.95,8.364L10.485,11.899L6.95,15.435C6.755,15.623 6.645,15.883 6.645,16.154C6.645,16.703 7.096,17.154 7.645,17.154C7.916,17.154 8.176,17.044 8.364,16.849L11.899,13.314L15.435,16.849C15.623,17.044 15.883,17.154 16.154,17.154C16.703,17.154 17.154,16.703 17.154,16.154C17.154,15.883 17.044,15.623 16.849,15.435L13.314,11.899L13.314,11.9Z" style="fill:white;fill-rule:nonzero;"/>
</svg>
