<?xml version="1.0" encoding="utf-8"?>
<!-- Generator: Adobe Illustrator 25.0.0, SVG Export Plug-In . SVG Version: 6.00 Build 0)  -->
<svg version="1.1" id="Layer_1" xmlns="http://www.w3.org/2000/svg" xmlns:xlink="http://www.w3.org/1999/xlink" x="0px" y="0px"
	 viewBox="0 0 24 24" style="enable-background:new 0 0 24 24;" xml:space="preserve">
<style type="text/css">
	.st0{fill:#FFFFFF;}
</style>
<path class="st0" d="M6,7h5c0.6,0,1,0.4,1,1s-0.4,1-1,1H6C5.4,9,5,8.6,5,8S5.4,7,6,7z M13,15h5c0.6,0,1,0.4,1,1c0,0.6-0.4,1-1,1h-5
	c-0.6,0-1-0.4-1-1C12,15.4,12.4,15,13,15z M6,11h12c0.6,0,1,0.4,1,1s-0.4,1-1,1H6c-0.6,0-1-0.4-1-1S5.4,11,6,11z"/>
</svg>
